<mxfile host="app.diagrams.net" modified="2024-01-22T07:01:50.392Z" agent="Mozilla/5.0 (Windows NT 10.0; Win64; x64) AppleWebKit/537.36 (KHTML, like Gecko) Chrome/120.0.0.0 Safari/537.36" etag="PZR-FMVlVMeAdLYEtWqG" version="22.1.21" type="github">
  <diagram name="第 1 页" id="q76jVNdIW2SFJ2JcnUCo">
    <mxGraphModel dx="1687" dy="918" grid="1" gridSize="10" guides="1" tooltips="1" connect="1" arrows="1" fold="1" page="1" pageScale="1" pageWidth="827" pageHeight="1169" math="0" shadow="0">
      <root>
        <mxCell id="0" />
        <mxCell id="1" parent="0" />
        <mxCell id="v8pVnGznMYh4SUHGBopm-34" value="" style="rounded=1;whiteSpace=wrap;html=1;" vertex="1" parent="1">
          <mxGeometry x="45" y="70" width="730" height="240" as="geometry" />
        </mxCell>
        <mxCell id="v8pVnGznMYh4SUHGBopm-33" value="" style="rounded=1;whiteSpace=wrap;html=1;" vertex="1" parent="1">
          <mxGeometry x="65" y="330" width="730" height="240" as="geometry" />
        </mxCell>
        <mxCell id="v8pVnGznMYh4SUHGBopm-1" value="" style="rounded=0;whiteSpace=wrap;html=1;" vertex="1" parent="1">
          <mxGeometry x="73" y="110" width="120" height="60" as="geometry" />
        </mxCell>
        <mxCell id="v8pVnGznMYh4SUHGBopm-3" value="" style="endArrow=none;html=1;rounded=0;" edge="1" parent="1">
          <mxGeometry width="50" height="50" relative="1" as="geometry">
            <mxPoint x="260" y="290" as="sourcePoint" />
            <mxPoint x="260" y="80" as="targetPoint" />
          </mxGeometry>
        </mxCell>
        <mxCell id="v8pVnGznMYh4SUHGBopm-6" value="" style="endArrow=none;html=1;rounded=0;" edge="1" parent="1">
          <mxGeometry width="50" height="50" relative="1" as="geometry">
            <mxPoint x="540" y="290" as="sourcePoint" />
            <mxPoint x="540" y="70" as="targetPoint" />
          </mxGeometry>
        </mxCell>
        <mxCell id="v8pVnGznMYh4SUHGBopm-7" value="agent" style="rounded=0;whiteSpace=wrap;html=1;" vertex="1" parent="1">
          <mxGeometry x="350" y="110" width="120" height="60" as="geometry" />
        </mxCell>
        <mxCell id="v8pVnGznMYh4SUHGBopm-8" value="" style="endArrow=classic;html=1;rounded=0;exitX=1;exitY=0.5;exitDx=0;exitDy=0;entryX=0;entryY=0.5;entryDx=0;entryDy=0;entryPerimeter=0;" edge="1" parent="1" source="v8pVnGznMYh4SUHGBopm-7" target="v8pVnGznMYh4SUHGBopm-10">
          <mxGeometry width="50" height="50" relative="1" as="geometry">
            <mxPoint x="680" y="360" as="sourcePoint" />
            <mxPoint x="630" y="220" as="targetPoint" />
          </mxGeometry>
        </mxCell>
        <mxCell id="v8pVnGznMYh4SUHGBopm-9" value="" style="endArrow=classic;html=1;rounded=0;entryX=0.5;entryY=0;entryDx=0;entryDy=0;exitX=0.5;exitY=1;exitDx=0;exitDy=0;entryPerimeter=0;" edge="1" parent="1" source="v8pVnGznMYh4SUHGBopm-7" target="v8pVnGznMYh4SUHGBopm-12">
          <mxGeometry width="50" height="50" relative="1" as="geometry">
            <mxPoint x="470" y="155" as="sourcePoint" />
            <mxPoint x="630" y="235" as="targetPoint" />
          </mxGeometry>
        </mxCell>
        <mxCell id="v8pVnGznMYh4SUHGBopm-10" value="" style="shape=cylinder3;whiteSpace=wrap;html=1;boundedLbl=1;backgroundOutline=1;size=15;" vertex="1" parent="1">
          <mxGeometry x="630" y="190" width="106" height="60" as="geometry" />
        </mxCell>
        <mxCell id="v8pVnGznMYh4SUHGBopm-12" value="" style="shape=cylinder3;whiteSpace=wrap;html=1;boundedLbl=1;backgroundOutline=1;size=15;" vertex="1" parent="1">
          <mxGeometry x="357" y="210" width="106" height="60" as="geometry" />
        </mxCell>
        <mxCell id="v8pVnGznMYh4SUHGBopm-13" value="" style="endArrow=classic;html=1;rounded=0;exitX=1;exitY=0.5;exitDx=0;exitDy=0;entryX=0;entryY=0;entryDx=0;entryDy=22.5;entryPerimeter=0;" edge="1" parent="1" source="v8pVnGznMYh4SUHGBopm-1" target="v8pVnGznMYh4SUHGBopm-12">
          <mxGeometry width="50" height="50" relative="1" as="geometry">
            <mxPoint x="540" y="400" as="sourcePoint" />
            <mxPoint x="590" y="350" as="targetPoint" />
          </mxGeometry>
        </mxCell>
        <mxCell id="v8pVnGznMYh4SUHGBopm-14" value="" style="shape=cylinder3;whiteSpace=wrap;html=1;boundedLbl=1;backgroundOutline=1;size=15;" vertex="1" parent="1">
          <mxGeometry x="80" y="210" width="106" height="60" as="geometry" />
        </mxCell>
        <mxCell id="v8pVnGznMYh4SUHGBopm-15" value="" style="endArrow=classic;html=1;rounded=0;exitX=0.5;exitY=1;exitDx=0;exitDy=0;entryX=0.5;entryY=0;entryDx=0;entryDy=0;entryPerimeter=0;" edge="1" parent="1" source="v8pVnGznMYh4SUHGBopm-1" target="v8pVnGznMYh4SUHGBopm-14">
          <mxGeometry width="50" height="50" relative="1" as="geometry">
            <mxPoint x="360" y="460" as="sourcePoint" />
            <mxPoint x="410" y="410" as="targetPoint" />
          </mxGeometry>
        </mxCell>
        <mxCell id="v8pVnGznMYh4SUHGBopm-18" value="工作集群" style="text;html=1;strokeColor=none;fillColor=none;align=center;verticalAlign=middle;whiteSpace=wrap;rounded=0;fontStyle=1;fontSize=18;" vertex="1" parent="1">
          <mxGeometry x="600" y="40" width="97" height="30" as="geometry" />
        </mxCell>
        <mxCell id="v8pVnGznMYh4SUHGBopm-19" value="Hub集群" style="text;html=1;strokeColor=none;fillColor=none;align=center;verticalAlign=middle;whiteSpace=wrap;rounded=0;fontStyle=1;fontSize=18;" vertex="1" parent="1">
          <mxGeometry x="343" y="40" width="97" height="30" as="geometry" />
        </mxCell>
        <mxCell id="v8pVnGznMYh4SUHGBopm-20" value="种子集群" style="text;html=1;strokeColor=none;fillColor=none;align=center;verticalAlign=middle;whiteSpace=wrap;rounded=0;fontStyle=1;fontSize=18;" vertex="1" parent="1">
          <mxGeometry x="80" y="40" width="108.5" height="30" as="geometry" />
        </mxCell>
        <mxCell id="v8pVnGznMYh4SUHGBopm-21" value="" style="rounded=0;whiteSpace=wrap;html=1;" vertex="1" parent="1">
          <mxGeometry x="88" y="370" width="120" height="60" as="geometry" />
        </mxCell>
        <mxCell id="v8pVnGznMYh4SUHGBopm-22" value="" style="endArrow=none;html=1;rounded=0;" edge="1" parent="1">
          <mxGeometry width="50" height="50" relative="1" as="geometry">
            <mxPoint x="275" y="550" as="sourcePoint" />
            <mxPoint x="275" y="340" as="targetPoint" />
          </mxGeometry>
        </mxCell>
        <mxCell id="v8pVnGznMYh4SUHGBopm-23" value="" style="endArrow=none;html=1;rounded=0;" edge="1" parent="1">
          <mxGeometry width="50" height="50" relative="1" as="geometry">
            <mxPoint x="555" y="550" as="sourcePoint" />
            <mxPoint x="555" y="330" as="targetPoint" />
          </mxGeometry>
        </mxCell>
        <mxCell id="v8pVnGznMYh4SUHGBopm-24" value="agent" style="rounded=0;whiteSpace=wrap;html=1;" vertex="1" parent="1">
          <mxGeometry x="365" y="370" width="120" height="60" as="geometry" />
        </mxCell>
        <mxCell id="v8pVnGznMYh4SUHGBopm-25" value="" style="endArrow=classic;html=1;rounded=0;exitX=1;exitY=0.5;exitDx=0;exitDy=0;entryX=0;entryY=0.5;entryDx=0;entryDy=0;entryPerimeter=0;" edge="1" source="v8pVnGznMYh4SUHGBopm-24" target="v8pVnGznMYh4SUHGBopm-27" parent="1">
          <mxGeometry width="50" height="50" relative="1" as="geometry">
            <mxPoint x="695" y="620" as="sourcePoint" />
            <mxPoint x="645" y="480" as="targetPoint" />
          </mxGeometry>
        </mxCell>
        <mxCell id="v8pVnGznMYh4SUHGBopm-27" value="" style="shape=cylinder3;whiteSpace=wrap;html=1;boundedLbl=1;backgroundOutline=1;size=15;" vertex="1" parent="1">
          <mxGeometry x="645" y="450" width="106" height="60" as="geometry" />
        </mxCell>
        <mxCell id="v8pVnGznMYh4SUHGBopm-29" value="" style="endArrow=classic;html=1;rounded=0;exitX=0;exitY=0.5;exitDx=0;exitDy=0;entryX=1;entryY=0.5;entryDx=0;entryDy=0;fillColor=#f8cecc;strokeColor=#b85450;strokeWidth=3;" edge="1" source="v8pVnGznMYh4SUHGBopm-24" target="v8pVnGznMYh4SUHGBopm-21" parent="1">
          <mxGeometry width="50" height="50" relative="1" as="geometry">
            <mxPoint x="555" y="660" as="sourcePoint" />
            <mxPoint x="372" y="492.5" as="targetPoint" />
          </mxGeometry>
        </mxCell>
        <mxCell id="v8pVnGznMYh4SUHGBopm-30" value="" style="shape=cylinder3;whiteSpace=wrap;html=1;boundedLbl=1;backgroundOutline=1;size=15;" vertex="1" parent="1">
          <mxGeometry x="95" y="470" width="106" height="60" as="geometry" />
        </mxCell>
        <mxCell id="v8pVnGznMYh4SUHGBopm-31" value="" style="endArrow=classic;html=1;rounded=0;exitX=0.5;exitY=1;exitDx=0;exitDy=0;entryX=0.5;entryY=0;entryDx=0;entryDy=0;entryPerimeter=0;" edge="1" source="v8pVnGznMYh4SUHGBopm-21" target="v8pVnGznMYh4SUHGBopm-30" parent="1">
          <mxGeometry width="50" height="50" relative="1" as="geometry">
            <mxPoint x="375" y="720" as="sourcePoint" />
            <mxPoint x="425" y="670" as="targetPoint" />
          </mxGeometry>
        </mxCell>
        <mxCell id="v8pVnGznMYh4SUHGBopm-35" value="" style="rounded=1;whiteSpace=wrap;html=1;" vertex="1" parent="1">
          <mxGeometry x="60" y="610" width="730" height="240" as="geometry" />
        </mxCell>
        <mxCell id="v8pVnGznMYh4SUHGBopm-36" value="" style="rounded=0;whiteSpace=wrap;html=1;" vertex="1" parent="1">
          <mxGeometry x="83" y="650" width="120" height="60" as="geometry" />
        </mxCell>
        <mxCell id="v8pVnGznMYh4SUHGBopm-37" value="" style="endArrow=none;html=1;rounded=0;" edge="1" parent="1">
          <mxGeometry width="50" height="50" relative="1" as="geometry">
            <mxPoint x="270" y="830" as="sourcePoint" />
            <mxPoint x="270" y="620" as="targetPoint" />
          </mxGeometry>
        </mxCell>
        <mxCell id="v8pVnGznMYh4SUHGBopm-38" value="" style="endArrow=none;html=1;rounded=0;" edge="1" parent="1">
          <mxGeometry width="50" height="50" relative="1" as="geometry">
            <mxPoint x="550" y="830" as="sourcePoint" />
            <mxPoint x="550" y="610" as="targetPoint" />
          </mxGeometry>
        </mxCell>
        <mxCell id="v8pVnGznMYh4SUHGBopm-39" value="agent" style="rounded=0;whiteSpace=wrap;html=1;" vertex="1" parent="1">
          <mxGeometry x="360" y="650" width="120" height="60" as="geometry" />
        </mxCell>
        <mxCell id="v8pVnGznMYh4SUHGBopm-40" value="" style="endArrow=classic;html=1;rounded=0;exitX=1;exitY=0.5;exitDx=0;exitDy=0;entryX=0;entryY=0.5;entryDx=0;entryDy=0;entryPerimeter=0;" edge="1" source="v8pVnGznMYh4SUHGBopm-39" target="v8pVnGznMYh4SUHGBopm-41" parent="1">
          <mxGeometry width="50" height="50" relative="1" as="geometry">
            <mxPoint x="690" y="900" as="sourcePoint" />
            <mxPoint x="640" y="760" as="targetPoint" />
          </mxGeometry>
        </mxCell>
        <mxCell id="v8pVnGznMYh4SUHGBopm-41" value="" style="shape=cylinder3;whiteSpace=wrap;html=1;boundedLbl=1;backgroundOutline=1;size=15;" vertex="1" parent="1">
          <mxGeometry x="640" y="730" width="106" height="60" as="geometry" />
        </mxCell>
        <mxCell id="v8pVnGznMYh4SUHGBopm-42" value="" style="endArrow=classic;html=1;rounded=0;exitX=0;exitY=0.5;exitDx=0;exitDy=0;entryX=1;entryY=0.5;entryDx=0;entryDy=0;fillColor=#f8cecc;strokeColor=#b85450;strokeWidth=3;" edge="1" source="v8pVnGznMYh4SUHGBopm-39" target="v8pVnGznMYh4SUHGBopm-36" parent="1">
          <mxGeometry width="50" height="50" relative="1" as="geometry">
            <mxPoint x="550" y="940" as="sourcePoint" />
            <mxPoint x="367" y="772.5" as="targetPoint" />
          </mxGeometry>
        </mxCell>
        <mxCell id="v8pVnGznMYh4SUHGBopm-43" value="" style="shape=cylinder3;whiteSpace=wrap;html=1;boundedLbl=1;backgroundOutline=1;size=15;" vertex="1" parent="1">
          <mxGeometry x="90" y="750" width="106" height="60" as="geometry" />
        </mxCell>
        <mxCell id="v8pVnGznMYh4SUHGBopm-44" value="" style="endArrow=classic;html=1;rounded=0;exitX=0.5;exitY=1;exitDx=0;exitDy=0;entryX=0.5;entryY=0;entryDx=0;entryDy=0;entryPerimeter=0;" edge="1" source="v8pVnGznMYh4SUHGBopm-36" target="v8pVnGznMYh4SUHGBopm-43" parent="1">
          <mxGeometry width="50" height="50" relative="1" as="geometry">
            <mxPoint x="370" y="1000" as="sourcePoint" />
            <mxPoint x="420" y="950" as="targetPoint" />
          </mxGeometry>
        </mxCell>
        <mxCell id="v8pVnGznMYh4SUHGBopm-45" value="代理" style="rounded=0;whiteSpace=wrap;html=1;fillColor=#f8cecc;strokeColor=#b85450;" vertex="1" parent="1">
          <mxGeometry x="360" y="760" width="120" height="60" as="geometry" />
        </mxCell>
        <mxCell id="v8pVnGznMYh4SUHGBopm-46" value="" style="endArrow=classic;html=1;rounded=0;exitX=1;exitY=0.5;exitDx=0;exitDy=0;entryX=0;entryY=0.5;entryDx=0;entryDy=0;" edge="1" parent="1" source="v8pVnGznMYh4SUHGBopm-36" target="v8pVnGznMYh4SUHGBopm-45">
          <mxGeometry width="50" height="50" relative="1" as="geometry">
            <mxPoint x="350" y="950" as="sourcePoint" />
            <mxPoint x="400" y="900" as="targetPoint" />
          </mxGeometry>
        </mxCell>
        <mxCell id="v8pVnGznMYh4SUHGBopm-47" value="" style="endArrow=classic;html=1;rounded=0;exitX=1;exitY=0.5;exitDx=0;exitDy=0;entryX=0;entryY=0.5;entryDx=0;entryDy=0;entryPerimeter=0;" edge="1" parent="1" source="v8pVnGznMYh4SUHGBopm-45" target="v8pVnGznMYh4SUHGBopm-41">
          <mxGeometry width="50" height="50" relative="1" as="geometry">
            <mxPoint x="213" y="690" as="sourcePoint" />
            <mxPoint x="370" y="800" as="targetPoint" />
          </mxGeometry>
        </mxCell>
        <mxCell id="v8pVnGznMYh4SUHGBopm-48" value="" style="rounded=1;whiteSpace=wrap;html=1;" vertex="1" parent="1">
          <mxGeometry x="60" y="920" width="730" height="240" as="geometry" />
        </mxCell>
        <mxCell id="v8pVnGznMYh4SUHGBopm-49" value="" style="rounded=0;whiteSpace=wrap;html=1;" vertex="1" parent="1">
          <mxGeometry x="83" y="960" width="120" height="60" as="geometry" />
        </mxCell>
        <mxCell id="v8pVnGznMYh4SUHGBopm-50" value="" style="endArrow=none;html=1;rounded=0;" edge="1" parent="1">
          <mxGeometry width="50" height="50" relative="1" as="geometry">
            <mxPoint x="270" y="1140" as="sourcePoint" />
            <mxPoint x="270" y="930" as="targetPoint" />
          </mxGeometry>
        </mxCell>
        <mxCell id="v8pVnGznMYh4SUHGBopm-51" value="" style="endArrow=none;html=1;rounded=0;" edge="1" parent="1">
          <mxGeometry width="50" height="50" relative="1" as="geometry">
            <mxPoint x="550" y="1140" as="sourcePoint" />
            <mxPoint x="550" y="920" as="targetPoint" />
          </mxGeometry>
        </mxCell>
        <mxCell id="v8pVnGznMYh4SUHGBopm-54" value="" style="shape=cylinder3;whiteSpace=wrap;html=1;boundedLbl=1;backgroundOutline=1;size=15;" vertex="1" parent="1">
          <mxGeometry x="640" y="1040" width="106" height="60" as="geometry" />
        </mxCell>
        <mxCell id="v8pVnGznMYh4SUHGBopm-56" value="" style="shape=cylinder3;whiteSpace=wrap;html=1;boundedLbl=1;backgroundOutline=1;size=15;" vertex="1" parent="1">
          <mxGeometry x="90" y="1060" width="106" height="60" as="geometry" />
        </mxCell>
        <mxCell id="v8pVnGznMYh4SUHGBopm-57" value="" style="endArrow=classic;html=1;rounded=0;exitX=0.5;exitY=1;exitDx=0;exitDy=0;entryX=0.5;entryY=0;entryDx=0;entryDy=0;entryPerimeter=0;" edge="1" source="v8pVnGznMYh4SUHGBopm-49" target="v8pVnGznMYh4SUHGBopm-56" parent="1">
          <mxGeometry width="50" height="50" relative="1" as="geometry">
            <mxPoint x="370" y="1310" as="sourcePoint" />
            <mxPoint x="420" y="1260" as="targetPoint" />
          </mxGeometry>
        </mxCell>
        <mxCell id="v8pVnGznMYh4SUHGBopm-58" value="代理:网络" style="rounded=0;whiteSpace=wrap;html=1;fillColor=#f8cecc;strokeColor=#b85450;" vertex="1" parent="1">
          <mxGeometry x="360" y="1010" width="120" height="120" as="geometry" />
        </mxCell>
        <mxCell id="v8pVnGznMYh4SUHGBopm-59" value="" style="endArrow=classic;html=1;rounded=0;exitX=1;exitY=1;exitDx=0;exitDy=0;entryX=0;entryY=0.75;entryDx=0;entryDy=0;" edge="1" source="v8pVnGznMYh4SUHGBopm-49" target="v8pVnGznMYh4SUHGBopm-58" parent="1">
          <mxGeometry width="50" height="50" relative="1" as="geometry">
            <mxPoint x="350" y="1260" as="sourcePoint" />
            <mxPoint x="400" y="1210" as="targetPoint" />
          </mxGeometry>
        </mxCell>
        <mxCell id="v8pVnGznMYh4SUHGBopm-60" value="" style="endArrow=classic;html=1;rounded=0;exitX=1;exitY=0.75;exitDx=0;exitDy=0;entryX=0;entryY=1;entryDx=0;entryDy=-15;entryPerimeter=0;" edge="1" source="v8pVnGznMYh4SUHGBopm-58" target="v8pVnGznMYh4SUHGBopm-54" parent="1">
          <mxGeometry width="50" height="50" relative="1" as="geometry">
            <mxPoint x="213" y="1000" as="sourcePoint" />
            <mxPoint x="370" y="1110" as="targetPoint" />
          </mxGeometry>
        </mxCell>
        <mxCell id="v8pVnGznMYh4SUHGBopm-62" value="" style="endArrow=classic;html=1;rounded=0;exitX=1;exitY=0.5;exitDx=0;exitDy=0;entryX=0;entryY=0.25;entryDx=0;entryDy=0;" edge="1" parent="1" source="v8pVnGznMYh4SUHGBopm-49" target="v8pVnGznMYh4SUHGBopm-58">
          <mxGeometry width="50" height="50" relative="1" as="geometry">
            <mxPoint x="410" y="1030" as="sourcePoint" />
            <mxPoint x="460" y="980" as="targetPoint" />
          </mxGeometry>
        </mxCell>
        <mxCell id="v8pVnGznMYh4SUHGBopm-63" value="" style="endArrow=classic;html=1;rounded=0;exitX=1;exitY=0.25;exitDx=0;exitDy=0;entryX=0;entryY=0.5;entryDx=0;entryDy=0;entryPerimeter=0;" edge="1" parent="1" source="v8pVnGznMYh4SUHGBopm-58" target="v8pVnGznMYh4SUHGBopm-54">
          <mxGeometry width="50" height="50" relative="1" as="geometry">
            <mxPoint x="870" y="1080" as="sourcePoint" />
            <mxPoint x="920" y="1030" as="targetPoint" />
          </mxGeometry>
        </mxCell>
        <mxCell id="v8pVnGznMYh4SUHGBopm-64" value="数据" style="text;html=1;strokeColor=none;fillColor=none;align=center;verticalAlign=middle;whiteSpace=wrap;rounded=0;" vertex="1" parent="1">
          <mxGeometry x="414" y="175" width="60" height="30" as="geometry" />
        </mxCell>
        <mxCell id="v8pVnGznMYh4SUHGBopm-66" value="数据" style="text;html=1;strokeColor=none;fillColor=none;align=center;verticalAlign=middle;whiteSpace=wrap;rounded=0;" vertex="1" parent="1">
          <mxGeometry x="270" y="370" width="60" height="30" as="geometry" />
        </mxCell>
        <mxCell id="v8pVnGznMYh4SUHGBopm-67" value="事件" style="text;html=1;strokeColor=none;fillColor=none;align=center;verticalAlign=middle;whiteSpace=wrap;rounded=0;" vertex="1" parent="1">
          <mxGeometry x="280" y="640" width="60" height="30" as="geometry" />
        </mxCell>
        <mxCell id="v8pVnGznMYh4SUHGBopm-68" value="数据" style="text;html=1;strokeColor=none;fillColor=none;align=center;verticalAlign=middle;whiteSpace=wrap;rounded=0;" vertex="1" parent="1">
          <mxGeometry x="290" y="720" width="60" height="30" as="geometry" />
        </mxCell>
        <mxCell id="v8pVnGznMYh4SUHGBopm-69" value="事件" style="text;html=1;strokeColor=none;fillColor=none;align=center;verticalAlign=middle;whiteSpace=wrap;rounded=0;" vertex="1" parent="1">
          <mxGeometry x="290" y="990" width="60" height="30" as="geometry" />
        </mxCell>
        <mxCell id="v8pVnGznMYh4SUHGBopm-70" value="数据" style="text;html=1;strokeColor=none;fillColor=none;align=center;verticalAlign=middle;whiteSpace=wrap;rounded=0;" vertex="1" parent="1">
          <mxGeometry x="280" y="1090" width="60" height="30" as="geometry" />
        </mxCell>
        <mxCell id="v8pVnGznMYh4SUHGBopm-71" value="问题:&amp;nbsp;&lt;br&gt;&amp;nbsp; &amp;nbsp; &amp;nbsp; &amp;nbsp; &amp;nbsp; 网络链路2&lt;br&gt;&amp;nbsp; &amp;nbsp; &amp;nbsp; &amp;nbsp; &amp;nbsp; 监听全网工作集群" style="text;html=1;strokeColor=none;fillColor=none;align=left;verticalAlign=middle;whiteSpace=wrap;rounded=0;" vertex="1" parent="1">
          <mxGeometry x="827" y="985" width="180" height="75" as="geometry" />
        </mxCell>
        <mxCell id="v8pVnGznMYh4SUHGBopm-72" value="问题:&amp;nbsp; 数据两次存储&lt;br&gt;&amp;nbsp; &amp;nbsp; &amp;nbsp; &amp;nbsp; &amp;nbsp; &amp;nbsp;agent更新问题" style="text;html=1;strokeColor=none;fillColor=none;align=left;verticalAlign=middle;whiteSpace=wrap;rounded=0;" vertex="1" parent="1">
          <mxGeometry x="830" y="170" width="160" height="70" as="geometry" />
        </mxCell>
        <mxCell id="v8pVnGznMYh4SUHGBopm-73" value="问题:&amp;nbsp; agent更新问题&lt;br&gt;&amp;nbsp; &amp;nbsp; &amp;nbsp; &amp;nbsp; &amp;nbsp; 网络链路1" style="text;html=1;strokeColor=none;fillColor=none;align=left;verticalAlign=middle;whiteSpace=wrap;rounded=0;" vertex="1" parent="1">
          <mxGeometry x="850" y="400" width="140" height="30" as="geometry" />
        </mxCell>
        <mxCell id="v8pVnGznMYh4SUHGBopm-74" value="问题:&amp;nbsp;&amp;nbsp;网络链路1&lt;br&gt;&amp;nbsp; &amp;nbsp; &amp;nbsp; &amp;nbsp; &amp;nbsp; 网络链路2" style="text;html=1;strokeColor=none;fillColor=none;align=left;verticalAlign=middle;whiteSpace=wrap;rounded=0;" vertex="1" parent="1">
          <mxGeometry x="840" y="670" width="140" height="30" as="geometry" />
        </mxCell>
        <mxCell id="v8pVnGznMYh4SUHGBopm-75" value="优点: agent仅处理事件，尽可能不更新" style="text;html=1;strokeColor=none;fillColor=none;align=left;verticalAlign=middle;whiteSpace=wrap;rounded=0;" vertex="1" parent="1">
          <mxGeometry x="830" y="760" width="300" height="30" as="geometry" />
        </mxCell>
        <mxCell id="v8pVnGznMYh4SUHGBopm-78" value="优点:&amp;nbsp; 无agent，代码逻辑收拢在种子集群" style="text;html=1;strokeColor=none;fillColor=none;align=left;verticalAlign=middle;whiteSpace=wrap;rounded=0;" vertex="1" parent="1">
          <mxGeometry x="827" y="1090" width="300" height="30" as="geometry" />
        </mxCell>
      </root>
    </mxGraphModel>
  </diagram>
</mxfile>
